<svg width="128" height="80" viewBox="0 0 128 80" fill="none" xmlns="http://www.w3.org/2000/svg">
<g clip-path="url(#clip0_1031_30393)">
<path d="M122.5 74C126 78.5 128 79 128 79H2.28882e-05V17.5C2.28882e-05 17.5 3.99998 16.5 7.49998 20.4999C11 24.4999 23.5 52 40.5 62.5C57.5 73 76 48.5 91 47.5C106 46.5 119 69.5 122.5 74Z" fill="#FEF3F2"/>
<path d="M122.5 74C126 78.5 128 79 128 79H2.28882e-05V17.5C2.28882e-05 17.5 3.99998 16.5 7.49998 20.4999C11 24.4999 23.5 52 40.5 62.5C57.5 73 76 48.5 91 47.5C106 46.5 119 69.5 122.5 74Z" fill="url(#paint0_linear_1031_30393)"/>
<path d="M128 79C128 79 126 78.5 122.5 74C119 69.5 106 46.5 91 47.5C76 48.5 57.5 73 40.5 62.5C23.5 52 11 24.4999 7.49998 20.4999C3.99998 16.5 2.28882e-05 17.5 2.28882e-05 17.5" stroke="#F04438" stroke-width="2"/>
</g>
<defs>
<linearGradient id="paint0_linear_1031_30393" x1="64" y1="55.5" x2="64" y2="79" gradientUnits="userSpaceOnUse">
<stop stop-color="white" stop-opacity="0"/>
<stop offset="1" stop-color="white"/>
</linearGradient>
<clipPath id="clip0_1031_30393">
<rect width="128" height="80" fill="white" transform="matrix(-1 0 0 1 128 0)"/>
</clipPath>
</defs>
</svg>
