<svg width="128" height="80" viewBox="0 0 128 80" fill="none" xmlns="http://www.w3.org/2000/svg">
<g clip-path="url(#clip0_1031_30374)">
<path d="M5.5 74C2 78.5 0 79 0 79H128V17.5C128 17.5 124 16.5 120.5 20.4999C117 24.4999 104.5 52 87.5 62.5C70.5 73 52 48.5 37 47.5C22 46.5 9 69.5 5.5 74Z" fill="#ECFDF3"/>
<path d="M5.5 74C2 78.5 0 79 0 79H128V17.5C128 17.5 124 16.5 120.5 20.4999C117 24.4999 104.5 52 87.5 62.5C70.5 73 52 48.5 37 47.5C22 46.5 9 69.5 5.5 74Z" fill="url(#paint0_linear_1031_30374)"/>
<path d="M0 79C0 79 2 78.5 5.5 74C9 69.5 22 46.5 37 47.5C52 48.5 70.5 73 87.5 62.5C104.5 52 117 24.4999 120.5 20.4999C124 16.5 128 17.5 128 17.5" stroke="#12B76A" stroke-width="2"/>
</g>
<defs>
<linearGradient id="paint0_linear_1031_30374" x1="64" y1="55.5" x2="64" y2="79" gradientUnits="userSpaceOnUse">
<stop stop-color="white" stop-opacity="0"/>
<stop offset="1" stop-color="white"/>
</linearGradient>
<clipPath id="clip0_1031_30374">
<rect width="128" height="80" fill="white"/>
</clipPath>
</defs>
</svg>
